<svg xmlns="http://www.w3.org/2000/svg" viewBox="0 0 215.76 215.76"><defs><style>.cls-1{fill:#e85856;}.cls-2{fill:#fff;}</style></defs><g id="Layer_2" data-name="Layer 2"><g id="Layer_1-2" data-name="Layer 1"><rect class="cls-1" width="215.76" height="215.76" rx="37.45"/><path class="cls-2" d="M142.8,158.85H88.46A28.48,28.48,0,0,1,60,130.41v-5.67l41.6.06,0,11.31-29.3,0a17.17,17.17,0,0,0,16.17,11.47H142.8a17.16,17.16,0,0,0,17.14-17.13v-45a17.16,17.16,0,0,0-17.1-17.13l-6.25,0H82L56,94.36a11.91,11.91,0,0,0,23.63-2.13H91a10.66,10.66,0,0,0,21.31,0H123.6a10.42,10.42,0,1,0,20.84,0h11.31A21.72,21.72,0,0,1,118,106.88a21.94,21.94,0,0,1-32.46.28,23.22,23.22,0,0,1-41-14.93V89.89l32.77-33h65.59a28.5,28.5,0,0,1,28.38,28.45v45A28.48,28.48,0,0,1,142.8,158.85Z"/></g></g></svg>