<svg xmlns="http://www.w3.org/2000/svg" viewBox="0 0 318.27 286.55"><defs><style>.cls-1{fill:#e85856;}</style></defs><g id="Layer_2" data-name="Layer 2"><g id="Layer_1-2" data-name="Layer 1"><path class="cls-1" d="M191.67,214.34v64.07H127.6V214.34h64.07m8-8H119.6v80.07h80.07V206.34Z"/><path class="cls-1" d="M75.31,144.11v43.37a26.77,26.77,0,0,0,19.06,25.6v65.47H73.49a61.46,61.46,0,0,1-61.37-61.41v-73H75.31m8-8H4.12v81a69.37,69.37,0,0,0,69.37,69.41h28.88V206.2H102a18.72,18.72,0,0,1-18.72-18.72V136.11Z"/><path class="cls-1" d="M306.14,144.11v73.2c-12.4,60.54-59.78,61.24-61.76,61.24H223.89V213a26.79,26.79,0,0,0,18.72-25.76l-.41-43.12h63.94m8-8h-80l.48,51.19a18.73,18.73,0,0,1-18.72,18.9v80.35h28.45c2.11,0,56.36-.66,69.8-68.45v-82Z"/><path class="cls-1" d="M275.05,0H43.17L0,93.81v.94c0,7.62,3.79,14.75,10.72,20.11a40.18,40.18,0,0,0,24.39,7.82c13.42,0,25.12-6.05,31-14.85,5.9,8.8,17.56,14.85,31,14.85s25.07-6.05,31-14.8c6,8.75,17.61,14.8,31,14.8s25-6.05,31-14.8c5.9,8.75,17.6,14.8,31,14.8s25.08-6.05,31-14.85c5.9,8.8,17.6,14.85,31,14.85,19.38,0,35.11-12.54,35.11-27.93v-.94ZM62,94.75c0,10.87-12,19.67-26.89,19.67a32.08,32.08,0,0,1-19.42-6.1c-4.53-3.54-7.13-8-7.43-12.74l12.88-28H62ZM62,59.4H24.93L48.48,8.26H62Zm62,35.35c0,10.87-12,19.67-26.84,19.67s-26.95-8.8-26.95-19.67V67.61H124Zm0-35.35H70.21V8.26H124Zm62,35.35c0,10.87-12,19.67-26.85,19.67s-26.9-8.8-26.9-19.67V67.61H186Zm0-35.35H132.26V8.26H186Zm62.05,35.35c0,10.87-12.1,19.67-26.95,19.67s-26.84-8.8-26.84-19.67V67.61h53.79Zm0-35.35H194.27V8.26h53.79Zm8.21-51.14h13.52L293.34,59.4H256.27Zm26.85,106.16c-14.8,0-26.85-8.8-26.85-19.67V67.61h40.86l12.88,28C309.42,106.06,297.57,114.42,283.12,114.42Z"/></g></g></svg>