<svg xmlns="http://www.w3.org/2000/svg" viewBox="0 0 174.61 174.61"><defs><style>.cls-1{fill:#e85856;}.cls-2,.cls-3{fill:none;}.cls-3{stroke:#fff;stroke-miterlimit:10;stroke-width:3px;}.cls-4{fill:#fff;}</style></defs><g id="Layer_2" data-name="Layer 2"><g id="Layer_1-2" data-name="Layer 1"><rect class="cls-1" width="174.61" height="174.61" rx="37.45"/><rect class="cls-2" x="100.1" y="38.08" width="19.61" height="18.64"/><rect class="cls-2" x="54.89" y="38.08" width="19.61" height="18.64"/><polygon class="cls-2" points="51.9 38.08 51.9 56.72 38.38 56.72 46.97 38.08 51.9 38.08"/><path class="cls-2" d="M51.89,59.72v9.89c0,4-4.4,7.18-9.81,7.18A11.64,11.64,0,0,1,35,74.56a6.36,6.36,0,0,1-2.7-4.64L37,59.72Z"/><path class="cls-2" d="M74.5,59.72v9.89c0,4-4.39,7.18-9.8,7.18s-9.81-3.22-9.81-7.18V59.72Z"/><path class="cls-2" d="M97.1,59.72v9.89c0,4-4.39,7.18-9.79,7.18s-9.81-3.22-9.81-7.18V59.72Z"/><rect class="cls-2" x="77.5" y="38.08" width="19.6" height="18.64"/><path class="cls-2" d="M119.71,59.72v9.89c0,4-4.39,7.18-9.81,7.18s-9.8-3.22-9.8-7.18V59.72Z"/><polygon class="cls-2" points="136.22 56.72 122.72 56.72 122.72 38.08 127.64 38.08 136.22 56.72"/><path class="cls-2" d="M142.31,69.92c-.23,3.81-4.54,6.87-9.81,6.87s-9.79-3.22-9.79-7.18V59.72H137.6Z"/><rect class="cls-3" x="72.89" y="110.29" width="29.19" height="29.19"/><path class="cls-3" d="M66.49,110.24h.12v29.29H56.08a25.29,25.29,0,0,1-25.29-25.3V84.69H59.66v18.73A6.82,6.82,0,0,0,66.49,110.24Z"/><path class="cls-3" d="M114.64,84.69h29.17v29.89c-5,25.2-25.47,25-25.47,25H108V110.24h0a6.83,6.83,0,0,0,6.83-6.89Z"/><path class="cls-4" d="M129.56,35.07H45L29.29,69.27v.33a9.24,9.24,0,0,0,3.9,7.33,14.6,14.6,0,0,0,8.89,2.85c4.89,0,9.16-2.2,11.31-5.41,2.15,3.21,6.41,5.41,11.32,5.41S73.84,77.59,76,74.39c2.16,3.2,6.42,5.39,11.31,5.39s9.13-2.19,11.29-5.39c2.16,3.2,6.42,5.39,11.31,5.39s9.15-2.2,11.3-5.41c2.15,3.21,6.41,5.41,11.3,5.41,7.06,0,12.8-4.57,12.8-10.18v-.33ZM51.89,69.6c0,4-4.4,7.18-9.81,7.18A11.64,11.64,0,0,1,35,74.55a6.41,6.41,0,0,1-2.71-4.64L37,59.71H51.89Zm0-12.89H38.38L47,38.07h4.93ZM74.5,69.6c0,4-4.39,7.18-9.8,7.18s-9.81-3.22-9.81-7.18V59.71H74.5Zm0-12.89H54.89V38.07H74.5ZM97.1,69.6c0,4-4.39,7.18-9.8,7.18s-9.8-3.22-9.8-7.18V59.71H97.1Zm0-12.89H77.5V38.07H97.1ZM119.71,69.6c0,4-4.4,7.18-9.81,7.18s-9.8-3.22-9.8-7.18V59.71h19.61Zm0-12.89H100.1V38.07h19.61Zm3-18.64h4.93l8.58,18.64H122.71Zm9.79,38.71c-5.4,0-9.79-3.22-9.79-7.18V59.71H137.6l4.7,10.2C142.08,73.72,137.77,76.78,132.5,76.78Z"/></g></g></svg>